#N canvas 156 95 1149 747 12;
#N canvas 0 22 450 278 (subpatch) 0;
#X array lab4 8 float 3;
#A 0 0 2 4 5 7 9 11 12;
#X coords 0 0 8 13 200 140 1;
#X restore 22 75 graph;
#X obj 29 301 contatore;
#X obj 29 397 + 60;
#X obj 29 424 makenote 90 300;
#X obj 29 451 noteout 1;
#X msg 302 407 0;
#X obj 302 379 loadbang;
#X obj 27 224 tgl 15 0 empty empty empty 17 7 0 10 -262144 -1 -1 0
1;
#X obj 29 330 % 8;
#X obj 302 435 pgmout 1;
#X obj 29 373 tabread lab4;
#X floatatom 90 351 5 0 0 0 - - -;
#X obj 142 311 sel 0;
#X obj 142 334 random 8;
#X floatatom 142 368 5 0 0 0 - - -;
#X obj 224 342 random 50;
#X obj 227 364 + 30;
#X msg 249 74 \; lab4 resize 8 \; lab4 bounds 0 0 8 13 \; lab4 0 0
2 4 5 7 9 11 12;
#X obj 28 279 metro 94;
#X text 21 7 LAB4_ASSIGNMENT - Write a patch that produces fragments
of a major scale transposed at always different pitch height and different
length;
#X obj 27 248 t f b;
#X connect 1 0 8 0;
#X connect 2 0 3 0;
#X connect 3 0 4 0;
#X connect 3 1 4 1;
#X connect 5 0 9 0;
#X connect 6 0 5 0;
#X connect 7 0 20 0;
#X connect 8 0 10 0;
#X connect 8 0 11 0;
#X connect 8 0 12 0;
#X connect 10 0 2 0;
#X connect 12 0 13 0;
#X connect 12 0 15 0;
#X connect 13 0 8 1;
#X connect 13 0 14 0;
#X connect 15 0 16 0;
#X connect 16 0 2 1;
#X connect 18 0 1 0;
#X connect 20 0 18 0;
#X connect 20 1 1 1;
