#N canvas 1440 -63 1413 990 12;
#N canvas 0 22 450 278 (subpatch) 0;
#X array maj_scale 8 float 3;
#A 0 0 2 4 5 7 9 11 12;
#X coords 0 0 8 13 200 140 1;
#X restore 59 81 graph;
#X obj 65 296 metro 500;
#X obj 65 411 + 60;
#X obj 65 438 makenote 90 300;
#X obj 65 465 noteout 1;
#X msg 563 98 0;
#X obj 563 70 loadbang;
#X obj 65 242 tgl 15 0 empty empty empty 17 7 0 10 -262144 -1 -1 0
1;
#X msg 323 371 0;
#X obj 65 358 % 8;
#X obj 563 126 pgmout 1;
#X obj 65 267 t f b;
#X obj 249 339 sel 7 15 23;
#X floatatom 242 242 5 0 0 1 fundamental_pitch - -;
#X obj 217 411 + 60;
#X msg 210 371 0;
#X msg 249 371 5;
#X msg 286 371 7;
#X obj 65 319 counter;
#X text 147 272 <-- timing;
#X text 103 356 <-- cycle;
#X text 355 339 <-- musical form;
#X text 186 455 <-- sound production;
#X text 323 394 <-- transposition;
#X msg 287 83 \; maj_scale resize 8 \; maj_scale bounds 0 0 8 13 \;
maj_scale 0 0 2 4 5 7 9 11 12;
#X text 61 9 LAB 4_Exs. #2. Play automatically a major scale followed
by its tranposition one fourth and one fifth up.;
#X obj 65 387 tabread maj_scale;
#X connect 1 0 18 0;
#X connect 2 0 3 0;
#X connect 3 0 4 0;
#X connect 3 1 4 1;
#X connect 5 0 10 0;
#X connect 6 0 5 0;
#X connect 7 0 11 0;
#X connect 8 0 7 0;
#X connect 9 0 26 0;
#X connect 11 0 1 0;
#X connect 11 1 15 0;
#X connect 11 1 18 1;
#X connect 12 0 16 0;
#X connect 12 1 17 0;
#X connect 12 2 8 0;
#X connect 13 0 14 1;
#X connect 14 0 2 1;
#X connect 15 0 14 0;
#X connect 16 0 14 0;
#X connect 17 0 14 0;
#X connect 18 0 9 0;
#X connect 18 0 12 0;
#X connect 26 0 2 0;
#X coords 0 0 0.25 0.25 170 120 0;
