#N canvas 34 53 1244 790 12;
#N canvas 0 22 450 278 (subpatch) 0;
#X array scale 8 float 3;
#A 0 0 2 4 5 7 9 11 12;
#X coords 0 0 8 13 200 140 1;
#X restore 59 81 graph;
#X msg 350 327 \; scale 0 0 2 4 5 7 9 11 12;
#X msg 350 363 \; scale 0 0 2 3 5 7 8 11 12;
#X obj 64 341 metro 500;
#X obj 65 459 + 60;
#X obj 65 486 makenote 90 300;
#X obj 65 513 noteout 1;
#X msg 338 469 0;
#X obj 338 441 loadbang;
#X obj 63 286 tgl 15 0 empty empty empty 17 7 0 10 -262144 -1 -1 0
1;
#X msg 275 415 0;
#X obj 65 435 tabread scale;
#X obj 66 400 % 8;
#X obj 249 387 sel 7 15;
#X obj 338 497 pgmout 1;
#X msg 311 173 \; scale resize 8 \; scale bounds 0 0 8 13 \;;
#X obj 63 310 t f b;
#X text 61 9 LAB4_Exs.#1 Play automatically a major scale followed
by a minor armonic on the same fundamental pitch.;
#X obj 65 363 counter;
#X connect 3 0 18 0;
#X connect 4 0 5 0;
#X connect 5 0 6 0;
#X connect 5 1 6 1;
#X connect 7 0 14 0;
#X connect 8 0 7 0;
#X connect 9 0 16 0;
#X connect 10 0 9 0;
#X connect 11 0 4 0;
#X connect 12 0 11 0;
#X connect 13 0 2 0;
#X connect 13 1 10 0;
#X connect 16 0 3 0;
#X connect 16 1 1 0;
#X connect 16 1 18 1;
#X connect 18 0 12 0;
#X connect 18 0 13 0;
#X coords 0 0 0.5 0.5 0 0 0;
