#N canvas 54 23 1255 819 12;
#X obj 43 85 tgl 15 0 empty empty empty 17 7 0 10 -262144 -1 -1 0 1
;
#X obj 44 167 contatore;
#X obj 44 225 % 4;
#X floatatom 82 248 5 0 0 0 - - -;
#X floatatom 85 224 5 0 0 0 - - -;
#X obj 45 314 sel 0 1 2 3;
#X msg 218 255 0;
#X obj 46 284 spigot;
#X msg 157 256 0;
#X obj 43 109 t f f b;
#X obj 283 206 loadbang;
#X msg 284 235 0;
#X obj 283 258 pgmout 1;
#X obj 49 432 noteout 1;
#X msg 46 356 60;
#X msg 80 356 62;
#X obj 43 135 metro 500;
#X msg 116 356 64;
#X msg 154 356 65;
#X msg 189 307 67;
#X obj 158 225 sel 11 12;
#X text 39 13 LAB3_ASSIGNMENT 2;
#X obj 49 401 makenote 90 300;
#X obj 187 281 t b b;
#X msg 231 308 2000;
#X msg 278 309 300;
#X connect 0 0 9 0;
#X connect 1 0 2 0;
#X connect 1 0 4 0;
#X connect 2 0 3 0;
#X connect 2 0 7 0;
#X connect 4 0 20 0;
#X connect 5 0 14 0;
#X connect 5 1 15 0;
#X connect 5 2 17 0;
#X connect 5 3 18 0;
#X connect 6 0 0 0;
#X connect 7 0 5 0;
#X connect 8 0 7 1;
#X connect 9 0 16 0;
#X connect 9 1 7 1;
#X connect 9 2 1 1;
#X connect 9 2 25 0;
#X connect 10 0 11 0;
#X connect 11 0 12 0;
#X connect 14 0 22 0;
#X connect 15 0 22 0;
#X connect 16 0 1 0;
#X connect 17 0 22 0;
#X connect 18 0 22 0;
#X connect 19 0 22 0;
#X connect 20 0 8 0;
#X connect 20 1 6 0;
#X connect 20 1 23 0;
#X connect 22 0 13 0;
#X connect 22 1 13 1;
#X connect 23 0 19 0;
#X connect 23 1 24 0;
#X connect 24 0 22 2;
#X connect 25 0 22 2;
