#N canvas 32 23 1381 820 12;
#N canvas 0 22 450 278 (subpatch) 0;
#X array mel1 16 float 3;
#A 0 0 0 7 7 9 9 7 7 5 5 4 4 2 2 0 0;
#X coords 0 0 16 12 200 140 1;
#X restore 33 35 graph;
#X obj 34 536 tabread mel1;
#X obj 34 564 + 60;
#X obj 34 619 noteout 1;
#X obj 34 590 makenote 100 500;
#X obj 36 252 metro 700;
#X obj 36 193 tgl 15 0 empty empty empty 17 7 0 10 -262144 -1 -1 0
1;
#X obj 35 501 spigot;
#X obj 70 477 tgl 15 0 empty empty empty 17 7 0 10 -262144 -1 -1 0
1;
#X msg 251 34 \; mel1 resize 16 \; mel1 bounds 0 0 16 12 \; mel1 0
0 0 7 7 9 9 7 7 5 5 4 4 2 2 0 0 \;;
#X obj 36 285 contatore;
#X obj 36 321 % 8;
#X msg 119 377 0;
#X obj 36 218 t f f b;
#X msg 169 378 1;
#X obj 36 432 + 0;
#X msg 147 437 8;
#X msg 114 288 0;
#X msg 182 437 6;
#X msg 220 437 0;
#X obj 186 215 sel 6 7 14 15 22 23 30 31 38 39 46 47;
#X msg 421 246 0;
#X text 259 436 these messages provide the transpositions of melody
patterns;
#X text 256 374 closing the <spigot> object prevents the note message
to produce the sound (pause);
#X connect 1 0 2 0;
#X connect 2 0 4 0;
#X connect 4 0 3 0;
#X connect 4 1 3 1;
#X connect 5 0 10 0;
#X connect 6 0 13 0;
#X connect 7 0 1 0;
#X connect 8 0 7 1;
#X connect 10 0 11 0;
#X connect 10 0 20 0;
#X connect 11 0 15 0;
#X connect 12 0 8 0;
#X connect 13 0 5 0;
#X connect 13 1 8 0;
#X connect 13 2 10 1;
#X connect 13 2 17 0;
#X connect 14 0 8 0;
#X connect 15 0 7 0;
#X connect 16 0 15 1;
#X connect 17 0 15 1;
#X connect 18 0 15 1;
#X connect 19 0 15 1;
#X connect 20 0 12 0;
#X connect 20 1 14 0;
#X connect 20 1 16 0;
#X connect 20 2 12 0;
#X connect 20 3 14 0;
#X connect 20 3 18 0;
#X connect 20 4 12 0;
#X connect 20 5 14 0;
#X connect 20 6 12 0;
#X connect 20 7 14 0;
#X connect 20 7 19 0;
#X connect 20 8 12 0;
#X connect 20 9 14 0;
#X connect 20 9 16 0;
#X connect 20 10 16 0;
#X connect 20 10 12 0;
#X connect 20 11 21 0;
#X connect 21 0 6 0;
