#N canvas 93 23 1347 817 12;
#X obj 65 140 noteout 1;
#X obj 278 173 pgmout 1;
#X msg 277 144 0;
#X obj 277 117 loadbang;
#X msg 56 66 58;
#X msg 91 66 60;
#X msg 128 67 62;
#X msg 165 66 63;
#X msg 200 66 65;
#X obj 64 110 makenote 100 400;
#X obj 69 406 noteout 1;
#X obj 200 377 pgmout 1;
#X msg 60 297 58;
#X msg 97 297 60;
#X msg 134 298 62;
#X msg 171 297 63;
#X msg 206 297 65;
#X obj 68 376 makenote 100 400;
#X obj 67 342 t f f;
#X obj 67 626 noteout 1;
#X obj 280 624 pgmout 1;
#X msg 67 527 58;
#X msg 102 526 60;
#X msg 139 526 62;
#X msg 174 526 63;
#X msg 209 525 65;
#X obj 66 596 makenote 100 400;
#X obj 69 561 t f b;
#X msg 56 703 58;
#X msg 91 703 60;
#X msg 128 704 62;
#X msg 165 703 63;
#X msg 200 703 65;
#X obj 64 782 makenote 100 400;
#X obj 62 807 noteout 10;
#X obj 196 780 pgmout 10;
#X obj 63 748 t f f;
#X obj 281 563 random 128;
#X text 65 453 Here the problem is solved by using the <trigger> object
that routes the incoming numbers first to <pgmout> and then to <makenote>
;
#X text 50 0 lab2_exs.#1 Write a patch to play the first five degrees
of a Bb major scale \, each with a different timbre;
#X text 59 205 Here at each note corresponds a timbre change. As the
message arrives first to <makenote> and then to <pgmout> \, the timbre
corresponds to the preceding note.;
#X text 54 659 Instead here the choice of the timbre does not depend
on the note but is determined by the output of the <random> object.
;
#X text 52 829 Exaample of use of channel 10 (percussions only);
#X connect 2 0 1 0;
#X connect 3 0 2 0;
#X connect 4 0 9 0;
#X connect 4 0 1 0;
#X connect 5 0 9 0;
#X connect 5 0 1 0;
#X connect 6 0 9 0;
#X connect 6 0 1 0;
#X connect 7 0 9 0;
#X connect 7 0 1 0;
#X connect 8 0 9 0;
#X connect 8 0 1 0;
#X connect 9 0 0 0;
#X connect 9 1 0 1;
#X connect 12 0 18 0;
#X connect 13 0 18 0;
#X connect 14 0 18 0;
#X connect 15 0 18 0;
#X connect 16 0 18 0;
#X connect 17 0 10 0;
#X connect 17 1 10 1;
#X connect 18 0 17 0;
#X connect 18 1 11 0;
#X connect 21 0 27 0;
#X connect 22 0 27 0;
#X connect 23 0 27 0;
#X connect 24 0 27 0;
#X connect 25 0 27 0;
#X connect 26 0 19 0;
#X connect 26 1 19 1;
#X connect 27 0 26 0;
#X connect 27 1 37 0;
#X connect 28 0 36 0;
#X connect 29 0 36 0;
#X connect 30 0 36 0;
#X connect 31 0 36 0;
#X connect 32 0 36 0;
#X connect 33 0 34 0;
#X connect 33 1 34 1;
#X connect 36 0 33 0;
#X connect 36 1 35 0;
#X connect 37 0 20 0;
