#N canvas 26 53 1211 701 12;
#X msg 121 121 2;
#X floatatom 215 122 5 0 0 0 - - -;
#X obj 377 118 bng 15 250 50 0 empty empty empty 17 7 0 10 -262144
-1 -1;
#X obj 306 118 tgl 15 0 empty empty empty 17 7 0 10 -262144 -1 -1 0
1;
#X text 376 90 bang;
#X obj 47 121 print;
#X floatatom 306 144 5 0 0 0 - - -;
#X floatatom 376 176 5 0 0 0 - - -;
#X obj 377 146 random 9;
#X text 299 90 toggle;
#X floatatom 517 90 5 0 0 0 - - -;
#X obj 517 112 print;
#X msg 517 189 30;
#X obj 517 216 + 3;
#X floatatom 517 245 5 0 0 0 - - -;
#X text 47 27 download the program at the following link: https://puredata.info/downloads/pure-data
;
#X text 42 87 object;
#X text 123 88 message;
#X text 214 88 number;
#X text 570 90 <--- chooses the numbers;
#X text 571 111 <---- prints the numbers;
#X text 559 189 <--- message;
#X text 573 215 <--- object;
#X text 580 247 <--- number;
#X text 36 233 Exs. n.#1 Connect the <print> and <random> objects as
to print in the Pd window a sequence of random numbers in the range
from 1 to 10;
#X connect 2 0 8 0;
#X connect 3 0 6 0;
#X connect 8 0 7 0;
#X connect 10 0 11 0;
#X connect 12 0 13 0;
#X connect 13 0 14 0;
