#N canvas 2039 -70 955 717 12;
#X obj 180 71 vsl 15 128 0 127 0 0 empty empty empty 0 -9 0 10 -262144
-1 -1 0 1;
#X obj 179 213 moses 50;
#X obj 231 239 moses 81;
#X floatatom 289 213 5 0 0 0 - - -;
#X floatatom 173 243 5 0 0 0 - - -;
#X obj 233 276 nbx 10 20 -1e+37 1e+37 0 0 empty empty empty 0 -8 0
10 -4032 -1 -1 0 256;
#X text 28 10 Exs. #2 Look at the output of the <clip> object. Make
a patch where the output is the same of the example above \, but without
using the <clip> object (and without changing the properties of the
slider....);
#X connect 0 0 1 0;
#X connect 1 0 4 0;
#X connect 1 1 2 0;
#X connect 1 1 3 0;
#X connect 2 0 5 0;
#X coords 0 0 0.5 0.5 0 0 0;
