#N canvas 99 119 537 473 12;
#X obj 44 11 vsl 15 128 0 127 0 0 empty empty empty 0 -9 0 10 -262144
-1 -1 5300 1;
#X obj 43 156 - 127;
#X obj 45 188 abs;
#X obj 104 10 vsl 15 128 0 127 0 0 empty empty empty 0 -9 0 10 -262144
-1 -1 20200 1;
#X connect 0 0 1 0;
#X connect 1 0 2 0;
#X connect 2 0 3 0;
