#N canvas 633 415 646 389 12;
#X obj 166 79 + 4;
#X obj 205 81 + 7;
#X obj 272 81 + 12;
#X obj 162 235 pack 0 0 0 0;
#X obj 89 150 f;
#X obj 157 157 f;
#X obj 215 156 f;
#X obj 270 166 f;
#X msg 162 261 \$1 \, \$2 \, \$3 \, \$4;
#X obj 164 295 outlet;
#X obj 346 11 inlet;
#X obj 346 44 unpack 0 0 0;
#X obj 53 15 inlet;
#X obj 65 47 t b b f;
#X connect 0 0 5 1;
#X connect 1 0 6 1;
#X connect 2 0 7 1;
#X connect 3 0 8 0;
#X connect 4 0 3 0;
#X connect 5 0 3 1;
#X connect 6 0 3 2;
#X connect 7 0 3 3;
#X connect 8 0 9 0;
#X connect 10 0 11 0;
#X connect 11 0 0 1;
#X connect 11 1 1 1;
#X connect 11 2 2 1;
#X connect 12 0 13 0;
#X connect 13 0 4 0;
#X connect 13 1 5 0;
#X connect 13 1 6 0;
#X connect 13 1 7 0;
#X connect 13 2 0 0;
#X connect 13 2 1 0;
#X connect 13 2 2 0;
#X connect 13 2 4 1;
