#N canvas 69 53 1178 790 12;
#N canvas 0 22 450 278 (subpatch) 0;
#X array lab5 8 float 3;
#A 0 0 2 4 5 7 9 11 12;
#X coords 0 0 8 13 200 140 1;
#X restore 25 101 graph;
#X obj 29 433 + 60;
#X obj 29 460 makenote 90 300;
#X obj 29 487 noteout 1;
#X msg 506 456 0;
#X obj 506 428 loadbang;
#X obj 27 260 tgl 15 0 empty empty empty 17 7 0 10 -262144 -1 -1 0
1;
#X obj 29 366 % 8;
#X obj 506 484 pgmout 1;
#X floatatom 90 387 5 0 0 0 - - -;
#X obj 142 347 sel 0;
#X obj 142 370 random 8;
#X floatatom 142 404 5 0 0 0 - - -;
#X obj 224 378 random 50;
#X obj 227 400 + 30;
#X obj 28 315 metro 94;
#X text 245 73 comment;
#X msg 237 102 \; lab5 resize 8 \; lab5 bounds 0 0 8 13 \; lab5 0 0
2 4 5 7 9 11 12;
#X obj 29 409 tabread lab5;
#X obj 314 436 chord_maker;
#X obj 229 426 - 12;
#X msg 388 399 6 8 12;
#X obj 29 337 counter;
#X text 24 8 LAB5_assignment - Change the patch <lab4_assignment> adding
at each new fragment a chord as in the model of the assignment.;
#X obj 27 284 t f b;
#X connect 1 0 2 0;
#X connect 2 0 3 0;
#X connect 2 1 3 1;
#X connect 4 0 8 0;
#X connect 5 0 4 0;
#X connect 6 0 24 0;
#X connect 7 0 9 0;
#X connect 7 0 10 0;
#X connect 7 0 18 0;
#X connect 10 0 11 0;
#X connect 10 0 13 0;
#X connect 11 0 7 1;
#X connect 11 0 12 0;
#X connect 13 0 14 0;
#X connect 14 0 1 1;
#X connect 14 0 20 0;
#X connect 15 0 22 0;
#X connect 18 0 1 0;
#X connect 19 0 2 0;
#X connect 20 0 19 0;
#X connect 21 0 19 1;
#X connect 22 0 7 0;
#X connect 24 0 15 0;
#X connect 24 1 21 0;
#X connect 24 1 22 1;
