#N canvas 1999 -90 1361 972 12;
#N canvas 0 22 450 278 (subpatch) 0;
#X array areyou 8 float 3;
#A 0 0 2 4 0 4 5 7 4;
#X coords 0 0 8 8 200 140 1;
#X restore 100 20 graph;
#X obj 110 216 t f b;
#X obj 109 178 tgl 30 0 empty empty empty 17 7 0 10 -4032 -1 -1 0 1
;
#X obj 108 413 + 60;
#X obj 107 496 noteout 1;
#X obj 109 308 % 4;
#X msg 364 277 0;
#X obj 442 225 loadbang;
#X obj 442 274 pgmout 1;
#X msg 442 248 0;
#X obj 109 342 + 0;
#X obj 110 244 metro 600;
#X msg 272 277 4;
#X msg 240 336 0;
#X obj 109 365 spigot;
#X msg 280 336 1;
#X msg 307 277 0;
#X obj 272 254 sel 7 10 11 14 15;
#X obj 107 470 makenote 100 400;
#X obj 278 417 pipe 4800;
#X obj 278 444 spigot;
#X obj 110 274 counter;
#X obj 108 392 tabread areyou;
#X msg 312 21 \; areyou resize 8 \; areyou bounds 0 0 8 8 \; areyou
0 0 2 4 0 4 5 7 4;
#X connect 1 0 11 0;
#X connect 1 1 13 0;
#X connect 1 1 15 0;
#X connect 1 1 21 1;
#X connect 2 0 1 0;
#X connect 3 0 18 0;
#X connect 3 0 19 0;
#X connect 5 0 10 0;
#X connect 6 0 2 0;
#X connect 6 0 20 1;
#X connect 7 0 9 0;
#X connect 9 0 8 0;
#X connect 10 0 14 0;
#X connect 11 0 21 0;
#X connect 12 0 10 1;
#X connect 13 0 10 1;
#X connect 14 0 22 0;
#X connect 15 0 14 1;
#X connect 15 0 20 1;
#X connect 16 0 14 1;
#X connect 17 0 12 0;
#X connect 17 1 16 0;
#X connect 17 2 15 0;
#X connect 17 3 16 0;
#X connect 17 4 6 0;
#X connect 18 0 4 0;
#X connect 18 1 4 1;
#X connect 19 0 20 0;
#X connect 20 0 18 0;
#X connect 21 0 5 0;
#X connect 21 0 17 0;
#X connect 22 0 3 0;
