#N canvas 186 75 1220 640 12;
#X obj 82 54 random 50;
#X obj 82 83 + 30;
#X obj 82 154 makenote 80 300;
#X obj 82 188 noteout 1;
#X obj 82 27 metro 200;
#X obj 82 4 tgl 15 0 empty empty empty 17 7 0 10 -262144 -1 -1 0 1
;
#X obj 320 63 pgmout 1;
#X msg 319 37 0;
#X obj 318 13 loadbang;
#X obj 323 125 clip 45 65;
#X obj 316 159 makenote 80 300;
#X obj 316 193 noteout 2;
#X msg 404 38 10;
#X obj 400 70 pgmout 2;
#X obj 82 108 moses 40;
#X floatatom 444 172 5 0 0 0 - - -;
#X obj 440 123 clip 70 80;
#X obj 445 197 chord_maker;
#X msg 520 163 2 3 4;
#X obj 486 59 pgmout 3;
#X obj 446 257 noteout 3;
#X obj 446 223 makenote 40 300;
#X obj 443 148 change;
#X msg 486 34 10;
#X connect 0 0 1 0;
#X connect 1 0 9 0;
#X connect 1 0 14 0;
#X connect 1 0 16 0;
#X connect 2 0 3 0;
#X connect 2 1 3 1;
#X connect 4 0 0 0;
#X connect 5 0 4 0;
#X connect 7 0 6 0;
#X connect 8 0 7 0;
#X connect 8 0 12 0;
#X connect 8 0 23 0;
#X connect 8 0 18 0;
#X connect 9 0 10 0;
#X connect 10 0 11 0;
#X connect 10 1 11 1;
#X connect 12 0 13 0;
#X connect 14 0 2 0;
#X connect 15 0 17 0;
#X connect 16 0 22 0;
#X connect 17 0 21 0;
#X connect 18 0 17 1;
#X connect 21 0 20 0;
#X connect 21 1 20 1;
#X connect 22 0 15 0;
#X connect 23 0 19 0;
