#N canvas 1556 -108 1738 983 12;
#N canvas 0 22 450 278 (subpatch) 0;
#X array aggr 16 float 3;
#A 0 0 0 7 7 9 9 7 7 5 5 4 4 2 2 0 0;
#X coords 0 0 16 12 200 140 1;
#X restore 33 35 graph;
#X obj 35 434 noteout 1;
#X obj 36 193 tgl 15 0 empty empty empty 17 7 0 10 -262144 -1 -1 0
1;
#X obj 36 285 contatore;
#X obj 36 321 % 16;
#X obj 36 218 t f b;
#X msg 251 34 \; aggr resize 16 \; aggr bounds 0 0 16 12 \; aggr 0
0 0 7 7 9 9 7 7 5 5 4 4 2 2 0 0 \;;
#X obj 35 351 tabread aggr;
#X obj 209 378 + 60;
#X obj 210 284 contatore;
#X obj 210 320 % 16;
#X obj 209 350 tabread aggr;
#X obj 209 433 noteout 2;
#X obj 210 251 metro 1000;
#X obj 36 252 metro 600;
#X obj 358 282 contatore;
#X obj 358 318 % 16;
#X obj 357 348 tabread aggr;
#X obj 358 249 metro 1850;
#X obj 357 431 noteout 3;
#X obj 35 379 + 72;
#X obj 357 376 + 48;
#X obj 578 155 pgmout 1;
#X obj 648 154 pgmout 2;
#X obj 717 154 pgmout 3;
#X floatatom 596 120 5 0 0 0 - - -;
#X floatatom 674 124 5 0 0 0 - - -;
#X floatatom 762 121 5 0 0 0 - - -;
#X obj 357 402 makenote 100 1850;
#X obj 35 405 makenote 60 600;
#X obj 586 69 loadbang;
#X msg 558 120 11;
#X msg 640 122 10;
#X obj 209 404 makenote 70 1000;
#X obj 493 282 contatore;
#X obj 493 318 % 16;
#X obj 492 348 tabread aggr;
#X floatatom 844 120 5 0 0 0 - - -;
#X obj 799 153 pgmout 4;
#X obj 492 431 noteout 4;
#X obj 493 249 metro 2500;
#X obj 492 402 makenote 100 2500;
#X obj 492 376 + 36;
#X msg 803 119 96;
#X obj 211 193 tgl 15 0 empty empty empty 17 7 0 10 -262144 -1 -1 0
1;
#X obj 211 218 t f b;
#X obj 360 188 tgl 15 0 empty empty empty 17 7 0 10 -262144 -1 -1 0
1;
#X obj 360 213 t f b;
#X obj 492 187 tgl 15 0 empty empty empty 17 7 0 10 -262144 -1 -1 0
1;
#X obj 492 212 t f b;
#X msg 721 120 93;
#X obj 639 213 vsl 15 128 0 127 0 0 one empty vol_one 0 -9 0 10 -258113
-1 -1 10800 1;
#X obj 83 378 r one;
#X obj 698 214 vsl 15 128 0 127 0 0 two empty vol_two 0 -9 0 10 -260097
-1 -1 10000 1;
#X obj 760 213 vsl 15 128 0 127 0 0 three empty vol_three 0 -9 0 10
-257985 -1 -1 15200 1;
#X obj 819 212 vsl 15 128 0 127 0 0 four empty vol_four 0 -9 0 10 -4034
-1 -1 13100 1;
#X obj 264 377 r two;
#X obj 415 376 r three;
#X obj 552 375 r four;
#X obj 133 315 t b;
#X obj 120 225 + 300;
#X obj 121 194 random 700;
#X obj 279 317 t b;
#X obj 274 187 random 1100;
#X obj 296 216 + 500;
#X connect 2 0 5 0;
#X connect 3 0 4 0;
#X connect 4 0 7 0;
#X connect 4 0 59 0;
#X connect 5 0 14 0;
#X connect 5 1 3 1;
#X connect 7 0 20 0;
#X connect 8 0 33 0;
#X connect 9 0 10 0;
#X connect 10 0 11 0;
#X connect 10 0 62 0;
#X connect 11 0 8 0;
#X connect 13 0 9 0;
#X connect 14 0 3 0;
#X connect 15 0 16 0;
#X connect 16 0 17 0;
#X connect 17 0 21 0;
#X connect 18 0 15 0;
#X connect 20 0 29 0;
#X connect 21 0 28 0;
#X connect 25 0 22 0;
#X connect 26 0 23 0;
#X connect 27 0 24 0;
#X connect 28 0 19 0;
#X connect 28 1 19 1;
#X connect 29 0 1 0;
#X connect 29 1 1 1;
#X connect 30 0 31 0;
#X connect 30 0 32 0;
#X connect 30 0 50 0;
#X connect 30 0 43 0;
#X connect 31 0 22 0;
#X connect 32 0 23 0;
#X connect 33 0 12 0;
#X connect 33 1 12 1;
#X connect 34 0 35 0;
#X connect 35 0 36 0;
#X connect 36 0 42 0;
#X connect 37 0 38 0;
#X connect 40 0 34 0;
#X connect 41 0 39 0;
#X connect 41 1 39 1;
#X connect 42 0 41 0;
#X connect 43 0 38 0;
#X connect 44 0 45 0;
#X connect 45 0 13 0;
#X connect 45 1 9 1;
#X connect 46 0 47 0;
#X connect 47 0 18 0;
#X connect 47 1 15 1;
#X connect 48 0 49 0;
#X connect 49 0 40 0;
#X connect 49 1 34 1;
#X connect 50 0 24 0;
#X connect 52 0 29 1;
#X connect 56 0 33 1;
#X connect 57 0 28 1;
#X connect 58 0 41 1;
#X connect 59 0 61 0;
#X connect 61 0 60 0;
#X connect 62 0 63 0;
#X connect 63 0 64 0;
