#N canvas 1848 -41 1191 901 12;
#X obj 49 283 contatore;
#X obj 49 225 t f b;
#X obj 48 187 tgl 30 0 empty empty empty 17 7 0 10 -4032 -1 -1 0 1
;
#X obj 46 454 + 60;
#X obj 46 484 makenote 100 250;
#X obj 49 518 noteout 1;
#X obj 48 317 % 4;
#N canvas 0 22 450 278 (subpatch) 0;
#X array hanon 10 float 3;
#A 0 0 2 4 5 7 9 11 12 14 16;
#X coords 0 0 10 17 200 140 1;
#X restore 30 19 graph;
#X obj 95 366 contatore;
#X msg 232 290 0;
#X obj 47 422 tabread hanon;
#X obj 309 401 loadbang;
#X obj 309 450 pgmout 1;
#X msg 309 424 0;
#X obj 47 388 + 0;
#X obj 96 341 sel 0;
#X floatatom 99 393 5 0 0 0 - - -;
#X obj 49 344 t f f;
#X obj 49 253 metro 250;
#X msg 242 20 \; hanon resize 10 \; hanon bounds 0 0 10 17 \; hanon
0 0 2 4 5 7 9 11 12 14 16 \;;
#X msg 218 469 1000;
#X msg 175 449 250;
#X obj 211 263 sel 27 28;
#X connect 0 0 6 0;
#X connect 0 0 22 0;
#X connect 1 0 18 0;
#X connect 1 1 0 1;
#X connect 1 1 8 1;
#X connect 1 1 21 0;
#X connect 2 0 1 0;
#X connect 3 0 4 0;
#X connect 4 0 5 0;
#X connect 4 1 5 1;
#X connect 6 0 17 0;
#X connect 8 0 14 1;
#X connect 8 0 16 0;
#X connect 9 0 2 0;
#X connect 10 0 3 0;
#X connect 11 0 13 0;
#X connect 13 0 12 0;
#X connect 14 0 10 0;
#X connect 15 0 8 0;
#X connect 17 0 14 0;
#X connect 17 1 15 0;
#X connect 18 0 0 0;
#X connect 20 0 4 2;
#X connect 21 0 4 2;
#X connect 22 0 20 0;
#X connect 22 1 9 0;
