#N canvas 0 23 1440 820 12;
#X obj 40 159 noteout 1;
#X obj 40 123 makenote 90 300;
#X msg 39 77 60;
#X msg 81 77 64;
#X obj 39 53 bng 15 250 50 0 empty empty empty 17 7 0 10 -262144 -1
-1;
#X msg 120 77 67;
#X obj 44 306 noteout 1;
#X obj 44 270 makenote 90 300;
#X msg 157 77 72;
#X msg 43 224 60 \, 64 \, 67 \, 72;
#X obj 47 450 noteout 1;
#X obj 47 414 makenote 90 300;
#X msg 47 383 \$1 \, \$2 \, \$3 \, \$4;
#X msg 48 352 60 64 67 72;
#X msg 149 352 55 59 62 67;
#X obj 48 614 noteout 1;
#X obj 48 578 makenote 90 300;
#X msg 48 547 \$1 \, \$2 \, \$3 \, \$4;
#X obj 48 523 pack 0 0 0 0;
#X floatatom 77 489 5 0 0 0 - - -;
#X floatatom 119 490 5 0 0 0 - - -;
#X floatatom 166 490 5 0 0 0 - - -;
#X floatatom 34 489 5 0 0 0 - - -;
#X obj 60 878 noteout 1;
#X obj 61 850 makenote 90 300;
#X msg 61 819 \$1 \, \$2 \, \$3 \, \$4;
#X obj 61 795 pack 0 0 0 0;
#X obj 58 765 f;
#X obj 90 765 f;
#X obj 120 765 f;
#X obj 151 765 f;
#X obj 108 741 + 4;
#X obj 139 741 + 7;
#X obj 171 741 + 12;
#X obj 126 713 unpack 0 0 0;
#X msg 126 687 4 7 10;
#X floatatom 48 687 5 0 0 2 fundamental - -;
#X obj 49 711 t b b f;
#X obj 72 1122 noteout 1;
#X obj 73 1094 makenote 90 300;
#X msg 73 1063 \$1 \, \$2 \, \$3 \, \$4;
#X obj 73 1039 pack 0 0 0 0;
#X obj 70 1009 f;
#X obj 102 1009 f;
#X obj 132 1009 f;
#X obj 163 1009 f;
#X obj 120 985 + 4;
#X obj 151 985 + 7;
#X obj 183 985 + 12;
#X obj 138 957 unpack 0 0 0;
#X msg 138 931 4 7 10;
#X floatatom 60 931 5 0 0 2 - - -;
#X obj 61 955 t b b f;
#X obj 307 1120 noteout 1;
#X obj 308 1092 makenote 90 300;
#X msg 374 931 4 7 10;
#X floatatom 298 932 5 0 0 2 - - -;
#X obj 303 1003 chord_maker;
#X text 212 48 To play a chord is it necessary to send simultaneously
the note messages to <makenote>. The solution here iss the simplest
one but also the most stiff because it is not reusable for other chord
or fundamentals.;
#X text 214 222 Here the notes are sent together in one message.;
#X text 280 372 The simbol <$> is used for variable input. Thus the
message can be composed dynamically.;
#X text 280 504 For a major flexibility the <pack> object allows to
form the message changing the chord note by note. The message will
be output only when the last number in the left reaches the hot inlet.
;
#X text 280 685 This algorithm allows to control both the fundamental
and the chord: 1) choose the chord with a message containing its three
intervals 2) send these values to the cold inlet of three <sum> objects
3) decide the fundamental 4) <trigger> sends first the fundamental
to the hot inlet making thus the computation. The fundamental and the
other notes of the chord are now stored in the <float> objects 6) thee
first <bang> sends the notes to the cold inlets of the <pack> object
7) at least the last <bang> releases the whole chord.;
#X text 281 836 THE ONLY LIMITATION OF THIS ALGORITHM IS THAT THE CHORDS
MUST BE COMPOSED ALWAYS OF THE SAME NUMBER OF NOTES (4);
#X text 422 993 The whole algorithm can be encapsulated in the abstraction
<chord_maker> to put in the <abstractions> folder for future uses.
;
#X text 34 12 WEEK 5 - CHORDS;
#X connect 1 0 0 0;
#X connect 1 1 0 1;
#X connect 2 0 1 0;
#X connect 3 0 1 0;
#X connect 4 0 2 0;
#X connect 4 0 3 0;
#X connect 4 0 5 0;
#X connect 4 0 8 0;
#X connect 5 0 1 0;
#X connect 7 0 6 0;
#X connect 7 1 6 1;
#X connect 8 0 1 0;
#X connect 9 0 7 0;
#X connect 11 0 10 0;
#X connect 11 1 10 1;
#X connect 12 0 11 0;
#X connect 13 0 12 0;
#X connect 14 0 12 0;
#X connect 16 0 15 0;
#X connect 16 1 15 1;
#X connect 17 0 16 0;
#X connect 18 0 17 0;
#X connect 19 0 18 1;
#X connect 20 0 18 2;
#X connect 21 0 18 3;
#X connect 22 0 18 0;
#X connect 24 0 23 0;
#X connect 24 1 23 1;
#X connect 25 0 24 0;
#X connect 26 0 25 0;
#X connect 27 0 26 0;
#X connect 28 0 26 1;
#X connect 29 0 26 2;
#X connect 30 0 26 3;
#X connect 31 0 28 1;
#X connect 32 0 29 1;
#X connect 33 0 30 1;
#X connect 34 0 31 1;
#X connect 34 1 32 1;
#X connect 34 2 33 1;
#X connect 35 0 34 0;
#X connect 36 0 37 0;
#X connect 37 0 27 0;
#X connect 37 1 28 0;
#X connect 37 1 29 0;
#X connect 37 1 30 0;
#X connect 37 2 31 0;
#X connect 37 2 32 0;
#X connect 37 2 33 0;
#X connect 37 2 27 1;
#X connect 39 0 38 0;
#X connect 39 1 38 1;
#X connect 40 0 39 0;
#X connect 41 0 40 0;
#X connect 42 0 41 0;
#X connect 43 0 41 1;
#X connect 44 0 41 2;
#X connect 45 0 41 3;
#X connect 46 0 43 1;
#X connect 47 0 44 1;
#X connect 48 0 45 1;
#X connect 49 0 46 1;
#X connect 49 1 47 1;
#X connect 49 2 48 1;
#X connect 50 0 49 0;
#X connect 51 0 52 0;
#X connect 52 0 42 0;
#X connect 52 1 43 0;
#X connect 52 1 44 0;
#X connect 52 1 45 0;
#X connect 52 2 46 0;
#X connect 52 2 47 0;
#X connect 52 2 48 0;
#X connect 52 2 42 1;
#X connect 54 0 53 0;
#X connect 54 1 53 1;
#X connect 55 0 57 1;
#X connect 56 0 57 0;
#X connect 57 0 54 0;
